<svg width="9" height="15" viewBox="0 0 9 15" fill="none" xmlns="http://www.w3.org/2000/svg">
<path d="M4.59922 6.17485C4.31738 6.17485 4.04187 6.09128 3.80753 5.9347C3.57319 5.77812 3.39055 5.55556 3.28269 5.29518C3.17484 5.03479 3.14662 4.74827 3.2016 4.47185C3.25658 4.19543 3.3923 3.94152 3.59159 3.74223C3.79088 3.54294 4.04479 3.40722 4.32122 3.35223C4.59764 3.29725 4.88416 3.32547 5.14454 3.43333C5.40493 3.54118 5.62748 3.72383 5.78406 3.95817C5.94064 4.19251 6.02422 4.46802 6.02422 4.74985C6.02422 5.12779 5.87409 5.49024 5.60685 5.75748C5.33961 6.02472 4.97715 6.17485 4.59922 6.17485ZM4.59922 4.27485C4.50527 4.27485 4.41344 4.30271 4.33532 4.35491C4.25721 4.4071 4.19633 4.48128 4.16038 4.56808C4.12442 4.65487 4.11502 4.75038 4.13335 4.84252C4.15167 4.93466 4.19691 5.0193 4.26334 5.08573C4.32977 5.15216 4.41441 5.1974 4.50655 5.21573C4.59869 5.23405 4.6942 5.22465 4.78099 5.1887C4.86779 5.15274 4.94197 5.09186 4.99417 5.01375C5.04636 4.93564 5.07422 4.8438 5.07422 4.74985C5.07422 4.62388 5.02418 4.50306 4.9351 4.41398C4.84602 4.3249 4.7252 4.27485 4.59922 4.27485ZM4.59922 11.8749C4.53671 11.8752 4.47474 11.8632 4.41686 11.8396C4.35899 11.816 4.30635 11.7811 4.26197 11.7371C4.12422 11.5756 0.324219 7.76135 0.324219 4.74985C0.324219 3.61605 0.774619 2.52869 1.57634 1.72697C2.37806 0.925254 3.46542 0.474854 4.59922 0.474854C5.73302 0.474854 6.82038 0.925254 7.6221 1.72697C8.42382 2.52869 8.87422 3.61605 8.87422 4.74985C8.87422 7.76135 5.07422 11.5756 4.93647 11.7371C4.89208 11.7811 4.83945 11.816 4.78158 11.8396C4.7237 11.8632 4.66173 11.8752 4.59922 11.8749ZM4.59922 1.42485C3.71737 1.42485 2.87165 1.77517 2.24809 2.39872C1.62453 3.02228 1.27422 3.86801 1.27422 4.74985C1.27422 6.8921 3.69197 9.7231 4.59922 10.7111C5.50647 9.72785 7.92422 6.9111 7.92422 4.74985C7.92422 3.86801 7.57391 3.02228 6.95035 2.39872C6.32679 1.77517 5.48106 1.42485 4.59922 1.42485ZM4.59922 14.7249C3.41647 14.7249 2.22422 14.3591 2.22422 13.5374C2.22422 12.7156 3.41647 12.3499 4.59922 12.3499C5.78197 12.3499 6.97422 12.7156 6.97422 13.5374C6.97422 14.3591 5.78197 14.7249 4.59922 14.7249ZM3.28347 13.5374C3.70004 13.7096 4.1487 13.7906 4.59922 13.7749C5.04974 13.7906 5.4984 13.7096 5.91497 13.5374C5.4984 13.3651 5.04974 13.2841 4.59922 13.2999C4.1487 13.2841 3.70004 13.3651 3.28347 13.5374Z" fill="#7B7FDA"/>
</svg>
