<svg width="14" height="10" viewBox="0 0 14 10" fill="none" xmlns="http://www.w3.org/2000/svg">
<path d="M12.5414 0.281982H1.41356C1.02637 0.281982 0.710938 0.596418 0.710938 0.984605V8.96161C0.710938 9.3488 1.02637 9.66423 1.41356 9.66423H12.5414C12.9286 9.66423 13.2435 9.3488 13.2435 8.96161V0.984605C13.2435 0.596418 12.9286 0.281982 12.5414 0.281982ZM12.5414 0.749899C12.5992 0.749899 12.6505 0.77332 12.6914 0.808202C11.2064 2.11129 7.76008 5.12759 7.5478 5.28804C7.33702 5.4485 7.14566 5.4485 6.97723 5.4485C6.8088 5.4485 6.61795 5.4485 6.40716 5.28804C6.19488 5.12759 2.74854 2.11129 1.26307 0.808202C1.30393 0.77332 1.35576 0.749899 1.41356 0.749899H12.5414ZM12.5414 9.19632H1.41356C1.2845 9.19632 1.17935 9.09117 1.17935 8.96161V1.35834C1.97815 2.05797 3.87025 3.71536 5.07268 4.75983L2.58161 7.41584C2.49291 7.51002 2.49739 7.65802 2.59207 7.74672C2.63692 7.78858 2.69423 7.81001 2.75153 7.81001C2.81382 7.81001 2.87661 7.78459 2.92245 7.73626L5.42598 5.06679C5.80271 5.39269 6.06482 5.61743 6.12262 5.66228C6.45948 5.91741 6.77043 5.91741 6.97624 5.91741C7.18204 5.91741 7.49299 5.91741 7.82985 5.66228C7.88815 5.61743 8.15026 5.39269 8.52699 5.06679L11.0305 7.73626C11.0764 7.78509 11.1387 7.81001 11.2009 7.81001C11.2582 7.81001 11.3156 7.78858 11.3609 7.74672C11.4556 7.65802 11.4601 7.51002 11.3714 7.41584L8.88079 4.75983C10.0827 3.71536 11.9758 2.05797 12.7741 1.35834V8.96161C12.7751 9.09117 12.67 9.19632 12.5414 9.19632Z" fill="#7B7FDA"/>
</svg>
