<svg width="13" height="13" viewBox="0 0 13 13" fill="none" xmlns="http://www.w3.org/2000/svg">
<path fill-rule="evenodd" clip-rule="evenodd" d="M3.89957 4.98952C4.86141 6.43227 6.12928 7.70014 7.61575 8.7057L8.05295 8.22478C8.79618 7.48154 9.80174 7.65642 10.5887 8.13734L11.8128 8.88057C12.7747 9.49265 12.5998 10.848 11.944 11.5912C8.14039 15.7008 -3.1393 4.42116 1.01407 0.661268C1.75731 -0.0382469 3.11262 -0.169406 3.68098 0.748708L4.42421 1.97286C4.94885 2.75981 5.08001 3.76537 4.38049 4.5086L3.89957 4.98952ZM1.36383 1.05475C1.88847 0.573829 2.8503 0.48639 3.20006 1.05475L3.94329 2.2789C4.33677 2.89097 4.46793 3.59049 3.94329 4.11513L3.15634 4.90208C4.29305 6.73831 5.86696 8.2685 7.65947 9.44893L8.49014 8.61826C8.97106 8.13734 9.7143 8.22478 10.2827 8.61826L11.5068 9.36149C12.1189 9.75497 11.9877 10.6731 11.5068 11.1977C8.27155 14.739 -2.17746 4.33372 1.36383 1.05475Z" fill="#7B7FDA"/>
</svg>
